<svg width="17" height="20" viewBox="0 0 17 20" fill="none" xmlns="http://www.w3.org/2000/svg">
<path opacity="0.4" d="M8.58558 20C8.46175 20 8.33792 19.9716 8.22617 19.9137L4.62508 18.0496C3.60324 17.5201 2.80389 16.9259 2.17971 16.2336C0.813572 14.7195 0.0534863 12.776 0.0414055 10.7599L-0.000877438 4.12426C-0.00591112 3.35842 0.488396 2.67103 1.22734 2.41215L7.83959 0.106788C8.23221 -0.0334361 8.67014 -0.0353973 9.06982 0.099924L15.7072 2.32684C16.4502 2.57493 16.9526 3.25742 16.9566 4.02228L16.9989 10.6628C17.012 12.676 16.2781 14.6274 14.9331 16.1581C14.3159 16.8602 13.5236 17.4632 12.5119 18.0025L8.94297 19.9088C8.83223 19.9686 8.70941 19.999 8.58558 20Z" fill="#959895"/>
</svg>
